# xmcd CD database file
#
# Track frame offsets:
#	150
#	15501
#	30213
#	43696
#	55377
#	68169
#	83551
#	95154
#	107343
#	122117
#	135757
#	151348
#	166868
#	180541
#	191617
#	207944
#	223864
#	240663
#	258242
#	272125
#
# Disc length: 3852 seconds
#
# Revision: 0
# Processed by: cddbd v1.5.1PL0 Copyright (c) Steve Scherf et al.
# Submitted via: CDex 1.50Beta7
#
DISCID=070f0a14
DTITLE=Chuva de mulher - Sert
DYEAR=2005
DGENRE=Country
TTITLE0=Ataíde and Alexandre - Chuva de mulher
TTITLE1=Teodoro and Sampaio - Vai chover mulher
TTITLE2=Guilherme and Santiago - Vai sobrar mulher
TTITLE3=Daniel - Carro e mulher
TTITLE4=Felipe and Falcão - Vaneirão da mulher feia
TTITLE5=Cezar and Paulinho - Morena ai, ai
TTITLE6=Di Paulo and Paulinho - Quatro tipo de mulher
TTITLE7=Dois a um - Mulher boa
TTITLE8=Ataíde and Alexandre - Mulher boa era Maria
TTITLE9=Teodoro and Sampaio - Mulher chorona
TTITLE10=Rick and Renner - Muleca
TTITLE11=Alan and Aladim - Muié e mé
TTITLE12=Ataíde and Alexandre - Gosto de mulher
TTITLE13=Jorge Moisés - Rodeio, viola e mulher
TTITLE14=Julinho and Janel - Mulheres
TTITLE15=As Mineirinhas - Mulher, cachaça e viola
TTITLE16=Fabiano and Cesinha - Segue mulher
TTITLE17=Rick and Renner - De Barretos a Nashville
TTITLE18=Teodoro and Sampaio - Alô mulherada
TTITLE19=Gino and Geno - Mulher que não dá voa
EXTD=YEAR: 2005
EXTT0=
EXTT1=
EXTT2=
EXTT3=
EXTT4=
EXTT5=
EXTT6=
EXTT7=
EXTT8=
EXTT9=
EXTT10=
EXTT11=
EXTT12=
EXTT13=
EXTT14=
EXTT15=
EXTT16=
EXTT17=
EXTT18=
EXTT19=
PLAYORDER=
